<svg xmlns="http://www.w3.org/2000/svg" width="18" height="18" viewBox="0 0 18 18"><defs><style>.a,.b{fill:#2c2c2c;}.a{stroke:#fff;opacity:0;}.c{stroke:none;}.d{fill:none;}</style></defs><g transform="translate(0.47)"><g class="a" transform="translate(-0.47)"><rect class="c" width="18" height="18"/><rect class="d" x="0.5" y="0.5" width="17" height="17"/></g><path class="b" d="M13.243,3.343,9,7.586,4.758,3.343a.5.5,0,0,0-.707,0l-.707.707a.5.5,0,0,0,0,.707L7.586,9,3.343,13.243a.5.5,0,0,0,0,.707l.707.707a.5.5,0,0,0,.707,0L9,10.414l4.243,4.243a.5.5,0,0,0,.707,0l.707-.707a.5.5,0,0,0,0-.707L10.414,9l4.243-4.242a.5.5,0,0,0,0-.707l-.707-.707a.5.5,0,0,0-.707,0Z" transform="translate(0.202)"/></g></svg>